<?xml version="1.0" encoding="utf-8"?>
<!DOCTYPE svg PUBLIC "-//W3C//DTD SVG 1.1//EN" "http://www.w3.org/Graphics/SVG/1.1/DTD/svg11.dtd">
<svg version="1.1" xmlns="http://www.w3.org/2000/svg" xmlns:xlink="http://www.w3.org/1999/xlink" x="0px" y="0px" viewBox="0 0 640 501.6" enable-background="new 0 0 640 501.6">
  <style>
    text {
      font-family: 'Apple SD Gothic Neo', 'Noto Sans', DroidSansFallback, 'Malgun Gothic', Dotum, sans-serif;
      font-weight: bold;
    }

    .region .area, .region .area.stroke { fill: #efefef; }
    .colour-weakness .region .area { fill: #fcfcfc }
    .region .stroke {
      fill: none;
      stroke: #b5b5b5;
      stroke-dasharray: 2;
    }
    .region-1 .area { fill: #d5e9f6 !important; }
    .region-2 .area { fill: #e2f8d5 !important; }
    .region-3 .area { fill: #f3f9b2 !important; }
    .region-4 .area { fill: #fee2da !important; }
    .colour-weakness .region-1 .area { fill: #f8f8f8 !important; }
    .colour-weakness .region-2 .area { fill: #ededed !important; }
    .colour-weakness .region-3 .area { fill: #cbcbcb !important; }
    .colour-weakness .region-4 .area { fill: #b0b0b0 !important; }

    .map-region-label { font-size: 14px; }

    .icon text {
      font-size: 12px;
      text-anchor: middle;
    }
    .colour-weakness .icon text { fill: #000; }

    .icon-1 text, .icon-4 text { fill: #fff; }
    .colour-weakness .icon-3 text, .colour-weakness .icon-4 text { fill: #fff; }

    .icon rect {
      fill: #efefef;
      stroke: #ddd;
    }

    .colour-weakness .icon rect {
      fill: #fcfcfc;
      stroke: #ddd;
    }

    .icon-1 rect {
      fill: #0000ef;
      stroke: #0000d8;
    }

    .icon-2 rect {
      fill: #00fb00;
      stroke: #00d100;
    }

    .icon-3 rect {
      fill: #f7f900;
      stroke: #e2dc00;
    }

    .icon-4 rect {
      fill: #f10000;
      stroke: #db0000;
    }

    .colour-weakness .icon-1 rect {
      fill: #f1f1f1;
      stroke: #ddd;
    }

    .colour-weakness .icon-2 rect {
      fill: #c1c1c1;
      stroke: #dcddde;
    }

    .colour-weakness .icon-3 rect {
      fill: #9c9d9d;
      stroke: #8c8c8c;
    }

    .colour-weakness .icon-4 rect {
      fill: #6c6c6c;
      stroke: #595959;
    }


    #legend-frame {
      fill: #fff;
      stroke: #d6d6d6;
    }

    #legend-title {
      fill: #323039;
      font-size: 14px;
    }

    .legend-label {
      font-size: 14px;
    }
  </style>

  <g id="svg">
    <g id="map">
      <g id="map-regions">
        <!-- 중구 -->
        <g id="map-region-jung" class="region">
          <path class="area" d="M344.4,282.6c7,1.3,14.2-1.3,20.2,3.3c1.2,1,2.2,2,2.9,3.2c0.2-0.1,0.4-0.3,0.5-0.4c5.1-3.8,11.5-9.7,15.4-15c5.2-6.9,3.4-15.8,1.4-24.9c-13.4-2-25,4-38.1,4.5c-7.4,0.3-14.9-2.5-22.4-1.3c-3.5,0.5-6.8,1.7-10.2,3c3.3,5.3,2.1,10-4.4,15.7c-0.9,0.8-2.3,1.5-4,2.1c2,2.4,3.9,4.8,5.7,7.3c3.4-2.3,7.3-3.7,12-3.5C331,276.8,337.3,281.3,344.4,282.6z"/>
        </g>

        <!-- 금천구 -->
        <g id="map-region-geumcheon" class="region">
          <path class="area" d="M244.5,428.6c-0.7-6.7-1-9.5-3.6-15.4c-0.8-1.8-2.7-3.8-3.3-5.4c-0.7-1.8,0.8-4.6-0.2-7c-1.5-3.6-5.4-5.9-9.9-7.5c-1.7,4.4-5.4,6.9-11.4,5.6c-4.9-1-10.1-7.5-14.8-9.6c-2.2-1-4.3-1.5-6.5-1.8c2,5.5,3.8,11.2,6.3,16.8c2.5,5.6,7.6,12.1,9.4,17.4c2,5.7-2.1,13.6,1.2,18.9c3.5,5.5,11.3,6.9,14.5,14.1c1.6,3.6-2.1,4.2,1.2,7.6c2.8,2.9,6.5,1.8,10.2,2c7.1,0.4,13.7,1.4,18-3.5c3.8-4.3,4.9-10.7,8.9-14.9c0.3,0.3,0.5,0.7,0.8,1.1c-0.3-0.9-0.6-1.7-1-2.5C258.3,432.9,246.1,444.2,244.5,428.6z"/>
          <path class="stroke" d="M244.5,428.6c-0.7-6.7-1-9.5-3.6-15.4c-0.8-1.8-2.7-3.8-3.3-5.4c-0.7-1.8,0.8-4.6-0.2-7c-1.5-3.6-5.4-5.9-9.9-7.5c-1.7,4.4-5.4,6.9-11.4,5.6c-4.9-1-10.1-7.5-14.8-9.6c-2.2-1-4.3-1.5-6.5-1.8c2,5.5,3.8,11.2,6.3,16.8c2.5,5.6,7.6,12.1,9.4,17.4c2,5.7-2.1,13.6,1.2,18.9c3.5,5.5,11.3,6.9,14.5,14.1c1.6,3.6-2.1,4.2,1.2,7.6c2.8,2.9,6.5,1.8,10.2,2c7.1,0.4,13.7,1.4,18-3.5c3.8-4.3,4.9-10.7,8.9-14.9c0.3,0.3,0.5,0.7,0.8,1.1c-0.3-0.9-0.6-1.7-1-2.5C258.3,432.9,246.1,444.2,244.5,428.6z"/>
        </g>

        <!-- 용산구 -->
        <g id="map-region-yongsan" class="region">
          <path class="area" d="M373.2,301.7c-3-3.7-3.2-8.7-5.7-12.7c-0.7-1.2-1.6-2.3-2.9-3.2c-6-4.6-13.2-2-20.2-3.3c-7.1-1.3-13.4-5.8-20.9-6.1c-4.7-0.2-8.6,1.2-12,3.5c-6.8,4.6-11.4,13.1-15.8,20.8c-3.4,5.8-6.1,12-13,13.7c-2.4,0.6-4.6,0.1-6.8-0.1c1.4,1.9,2.7,3.9,4.4,5.3c3.5,3,7.3,4.1,10.1,7.8c-0.4,0.6-0.8,1.2-1.1,1.8c4.2,1.3,6.8,2.2,10.8,6c1.7,1.6,3.2,5,5.4,6.1c2.9,1.4,3.2,0.1,5.9,1.1c3.5,1.3,7.9,3.7,12.8,4.2c0.4,0,0.7,0.1,1.1,0.1c18.1,0.8,30.9-13,43-25.5c4.2-4.3,8.3-8.5,12.6-11.9c0.3-0.3,0.7-0.5,1-0.8C379.1,306.5,375.7,304.9,373.2,301.7z"/>
          <path class="stroke" d="M276.8,314.5c-0.3,0-0.7-0.1-1-0.1c0.2,0.3,0.4,0.5,0.6,0.8"/>
          <path class="stroke" d="M277.6,316.8c0.8,1.1,1.7,2.1,2.7,2.9c2.9,2.6,6.2,3.7,8.8,6.4"/>
          <path class="stroke" d="M289.8,326.8c0.2,0.2,0.4,0.5,0.6,0.8c-0.2,0.3-0.4,0.6-0.5,0.8"/>
          <path class="stroke" d="M289.8,328.5c-0.2,0.3-0.3,0.6-0.5,0.9c0.3,0.1,0.6,0.2,1,0.3"/>
          <path class="stroke" d="M292.1,330.4c2.7,1,4.9,2.2,8,5c1.7,1.6,3.2,5,5.4,6.1c2.9,1.4,3.2,0.1,5.9,1.1c3.5,1.3,7.9,3.7,12.8,4.2c0.4,0,0.7,0.1,1.1,0.1c18.1,0.8,30.9-13,43-25.5c4-4.2,8-8.2,12-11.5"/>
          <path class="stroke" d="M381.1,309.4c0.3-0.2,0.5-0.4,0.8-0.6c-0.3-0.2-0.5-0.4-0.8-0.6"/>
          <path class="stroke" d="M379.5,307c-2.2-1.5-4.4-3-6.2-5.2c-3-3.7-3.2-8.7-5.7-12.7c-0.7-1.2-1.6-2.3-2.9-3.2c-6-4.6-13.2-2-20.2-3.3c-7.1-1.3-13.4-5.8-20.9-6.1c-4.7-0.2-8.6,1.2-12,3.5c-6.8,4.6-11.4,13.1-15.8,20.8c-3.4,5.8-6.1,12-13,13.7c-1.7,0.4-3.3,0.3-4.8,0.1"/>
        </g>

        <!-- 성동구 -->
        <g id="map-region-seongdong" class="region">
          <path class="area" d="M435.4,308.4c3.9-5.6,5-16.7,6.3-23.3c0.9-4.8,2.9-10,5.2-15.3c-8.9-2.5-18.1-6.9-23.5-11.6c-6.5-5.7-7.2-11.4-16.5-10.6c-7.7,0.6-10.7,3.7-18.9,1.7c-1.1-0.3-2.1-0.4-3.2-0.6c2,9.1,3.8,18-1.4,24.9c-3.9,5.3-10.4,11.2-15.4,15c-0.2,0.1-0.4,0.3-0.5,0.4c2.5,4,2.8,8.9,5.7,12.7c2.5,3.1,5.9,4.8,8.7,7c13.2-10,17.7-4.1,32.2,3.2c4.4,2.2,8.5,4.1,12.5,5.7c0-0.1,0.1-0.2,0.1-0.2C429,313.6,433,311.9,435.4,308.4z"/>
          <path class="stroke" d="M446.5,270.8c0.1-0.3,0.3-0.6,0.4-0.9c-0.3-0.1-0.6-0.2-1-0.3"/>
          <path class="stroke" d="M444,269c-7.9-2.6-15.8-6.5-20.6-10.7c-6.5-5.7-7.2-11.4-16.5-10.6c-7.7,0.6-10.7,3.7-18.9,1.7c-0.4-0.1-0.8-0.2-1.2-0.3"/>
          <path class="stroke" d="M385.8,248.9c-0.3-0.1-0.7-0.1-1-0.2c0.1,0.3,0.1,0.7,0.2,1"/>
          <path class="stroke" d="M385.5,251.7c1.7,8.1,2.6,15.8-2,22c-3.7,4.9-9.5,10.4-14.4,14.2"/>
          <path class="stroke" d="M368.3,288.5c-0.1,0.1-0.2,0.1-0.3,0.2c-0.2,0.1-0.4,0.3-0.5,0.4c0.2,0.3,0.3,0.6,0.5,0.9"/>
          <path class="stroke" d="M368.9,291.8c1.4,3.3,2,7,4.3,9.9c2,2.5,4.6,4.1,7,5.8"/>
          <path class="stroke" d="M381.1,308.1c0.3,0.2,0.5,0.4,0.8,0.6c0.3-0.2,0.5-0.4,0.8-0.6"/>
          <path class="stroke" d="M384.4,307c11.3-7.4,16.2-1.8,29.7,4.9c3.7,1.9,7.2,3.5,10.6,4.9"/>
          <path class="stroke" d="M425.7,317.2c0.3,0.1,0.6,0.2,0.9,0.4c0-0.1,0.1-0.2,0.1-0.2c0.1-0.2,0.3-0.4,0.4-0.6"/>
          <path class="stroke" d="M428.4,315.1c2.3-2.4,5.1-4,7-6.7c3.9-5.6,5-16.7,6.3-23.3c0.8-4.2,2.4-8.8,4.4-13.4"/>
        </g>

        <!-- 도봉구 -->
        <g id="map-region-dobong" class="region">
          <path class="area" d="M368.1,73.8c0.6,0.5,5.8,5.4,5.8,5.5c1.4,2.2,3.9,2.7,1.8,6.8c10.1-2.1,4.8,11.6,3.6,16.7c-2.2,9-6.5,11.1-1.1,17.6c4.5,5.4,11.7,6.4,16.6,10.9c4.8,4.4,6.6,11.2,10.6,16.6c1.2,1.6,2.5,3,3.9,4.3c1.5-1.4,2.8-2.8,3.7-3.9c3.3-4.5,2.6-8.3,5.3-13.1c1.5,0.9,5.3,1.4,6.7,2.3c1.2-7.4-1.2-16.5-1.8-24c-0.7-8-5.8-15-6.8-22.8c-1-8.3,3.2-16.4,4.4-24.3c0.6-4.5,1.3-8.3,2.2-12.1c-0.4-0.4-0.7-0.7-1.2-1.1c-5.6-4.7-11.1-1.6-17.6-3.3c-7.8-2.1-6.2-6.3-12.4-12.1c-12.2-11.6-22,3.9-25,14.7c-1.2,4.2,0.9,6.7-2.6,10.5c-1.3,1.4-3.2,1.9-5.1,2.1C360.5,68.3,363,70,368.1,73.8z"/>
          <path class="stroke" d="M376.2,85.1c-0.1,0.3-0.2,0.6-0.4,0.9c0.3-0.1,0.7-0.1,1-0.2"/>
          <path class="stroke" d="M378.8,85.9c5.9,1.2,1.6,12.4,0.5,16.8c-2.2,9-6.5,11.1-1.1,17.6c4.5,5.4,11.7,6.4,16.6,10.9c4.8,4.4,6.6,11.2,10.6,16.6c0.8,1,1.6,2,2.5,2.9"/>
          <path class="stroke" d="M408.7,151.3c0.2,0.2,0.5,0.5,0.7,0.7c0.2-0.2,0.5-0.5,0.7-0.7"/>
          <path class="stroke" d="M411.5,149.9c0.6-0.6,1.1-1.3,1.6-1.8c2.9-4,2.7-7.3,4.5-11.3"/>
          <path class="stroke" d="M417.9,135.9c0.1-0.3,0.3-0.6,0.5-0.9c0.2,0.2,0.6,0.3,0.9,0.4"/>
          <path class="stroke" d="M420.9,135.9c0.8,0.2,1.7,0.5,2.5,0.7"/>
          <path class="stroke" d="M424.2,136.9c0.4,0.1,0.7,0.3,0.9,0.4c0.1-0.3,0.1-0.7,0.1-1"/>
          <path class="stroke" d="M425.4,134.3c0.3-6.7-1.6-14.5-2.1-21c-0.7-8-5.8-15-6.8-22.8c-1-8.3,3.2-16.4,4.4-24.3c0.5-3.7,1.1-7,1.8-10.2"/>
          <path class="stroke" d="M422.9,55c0.1-0.3,0.2-0.6,0.2-1c-0.2-0.2-0.5-0.5-0.7-0.7"/>
          <path class="stroke" d="M420.9,52.1c-5.2-3.5-10.5-0.8-16.5-2.4c-7.8-2.1-6.2-6.3-12.4-12.1c-12.2-11.6-22,3.9-25,14.7c-1.2,4.2,0.9,6.7-2.6,10.5c-0.9,0.9-2,1.5-3.1,1.8"/>
          <path class="stroke" d="M360.3,64.8c-0.3,0.1-0.7,0.1-1,0.2c0.1,0.3,0.2,0.6,0.4,0.9"/>
          <path class="stroke" d="M360.8,67.6c1.5,1.9,3.8,3.5,7.4,6.2c0.6,0.5,5.8,5.4,5.8,5.5c1.1,1.8,3,2.5,2.5,4.9"/>
        </g>

        <!-- 동대문구 -->
        <g id="map-region-dongdaemun" class="region">
          <path class="area" d="M407,247.6c9.3-0.8,10,5,16.5,10.6c5.4,4.7,14.6,9.1,23.5,11.6c2.9-6.4,6.4-12.9,9.6-18.6c-0.5,0-1.1-0.1-1.6-0.1c0.4-8-1.6-15.2-3.8-22.5c-1.8-5.8-6.6-11.2-7.4-16.5c-1.1-6.6,0.3-12.8,1.8-19c-2.1,1.1-4.1,2.5-6.4,3.3c-3,1.2-7.3,1.1-10.2,2.8c-6.5,3.7-8.2,10.2-13,15.5c-5.1,5.5-12.6,8.4-18.2,13.2c-3.5,3-4.6,4.5-8.9,5.9c-0.3,0.1-3.4,0.7-6.2,1.1c0.3,4.5,1.3,9.1,2.3,13.7c1,0.2,2.1,0.3,3.2,0.6C396.3,251.3,399.2,248.3,407,247.6z"/>
          <path class="stroke" d="M446,269.6c0.3,0.1,0.6,0.2,1,0.3c0.1-0.3,0.3-0.6,0.4-0.9"/>
          <path class="stroke" d="M448.2,267.1c2.3-4.8,4.9-9.6,7.3-14"/>
          <path class="stroke" d="M456,252.1c0.2-0.3,0.3-0.6,0.5-0.9c-0.5,0-1.1-0.1-1.6-0.1c0-0.3,0-0.7,0-1"/>
          <path class="stroke" d="M454.9,248.2c-0.1-6.8-1.9-13.1-3.9-19.5c-1.8-5.8-6.6-11.2-7.4-16.5c-0.9-5.9,0-11.5,1.4-17"/>
          <path class="stroke" d="M445.2,194.2c0.1-0.3,0.2-0.6,0.2-1c-0.3,0.2-0.6,0.3-0.9,0.5"/>
          <path class="stroke" d="M442.8,194.7c-1.2,0.7-2.4,1.3-3.7,1.9c-3,1.2-7.3,1.1-10.2,2.8c-6.5,3.7-8.2,10.2-13,15.5c-5.1,5.5-12.6,8.4-18.2,13.2c-3.5,3-4.6,4.5-8.9,5.9c-0.2,0.1-2.1,0.4-4.2,0.8"/>
          <path class="stroke" d="M383.5,234.9c-0.3,0.1-0.7,0.1-1,0.2c0,0.3,0,0.7,0.1,1"/>
          <path class="stroke" d="M382.8,237.8c0.4,3,1,6.1,1.7,9.2"/>
          <path class="stroke" d="M384.6,247.8c0.1,0.3,0.1,0.7,0.2,1c0.3,0,0.7,0.1,1,0.2"/>
          <path class="stroke" d="M387.8,249.3c0.1,0,0.1,0,0.2,0c8.2,2,11.2-1.1,18.9-1.7c9.3-0.8,10,5,16.5,10.6c5,4.4,13.3,8.4,21.5,11"/>
        </g>

        <!-- 동작구 -->
        <g id="map-region-dongjak" class="region">
          <path class="area" d="M305.5,341.5c-2.3-1.1-3.7-4.5-5.4-6.1c-4-3.7-6.6-4.7-10.8-6c-0.5,0.8-1,1.7-1.5,2.6c-6.2,2.8-13.3,3.8-19.8,6.4c-8.9,3.5-9.7,6.9-12.4,16.3c-2.7,9.4-7.5,11.5-14.4,17.4c-6.5,5.6-6.8,7.9-8,13c1.3-0.2,2.8-0.5,4.4-0.8c5.1-1.1,23.3-0.5,20.1-7.9c4.7-2.2,15.2,1.8,20.7,1.8c7.8-0.1,18,1.2,25.1-0.7c0.5,8.9-0.5,15.8,4.7,23.3c7.9,11.4,13.7,4.3,22.7,6.4c1-0.9,1.8-1.8,2.6-2.7c5.9-7.1,2.9-13.8,3.2-22c0.3-8.9,6.4-13.1,0.2-20.2c-5.3-6.1-10.5-7.6-12.5-15.5c-5-0.5-9.3-3-12.8-4.2C308.7,341.6,308.4,342.9,305.5,341.5z"/>
          <path class="stroke" d="M305.5,341.5c-2.3-1.1-3.7-4.5-5.4-6.1c-4-3.7-6.6-4.7-10.8-6c-0.5,0.8-1,1.7-1.5,2.6c-6.2,2.8-13.3,3.8-19.8,6.4c-8.9,3.5-9.7,6.9-12.4,16.3c-2.7,9.4-7.5,11.5-14.4,17.4c-6.5,5.6-6.8,7.9-8,13c1.3-0.2,2.8-0.5,4.4-0.8c5.1-1.1,23.3-0.5,20.1-7.9c4.7-2.2,15.2,1.8,20.7,1.8c7.8-0.1,18,1.2,25.1-0.7c0.5,8.9-0.5,15.8,4.7,23.3c7.9,11.4,13.7,4.3,22.7,6.4c1-0.9,1.8-1.8,2.6-2.7c5.9-7.1,2.9-13.8,3.2-22c0.3-8.9,6.4-13.1,0.2-20.2c-5.3-6.1-10.5-7.6-12.5-15.5c-5-0.5-9.3-3-12.8-4.2C308.7,341.6,308.4,342.9,305.5,341.5z"/>
        </g>

        <!-- 강동구 -->
        <g id="map-region-gangdong" class="region">
          <path class="area" d="M584,240.9c-1.2-9.1-1.7-13.9-10.2-7.8c-2.6,1.9-2.9,4.8-6.1,6.8c-2.9,1.8-7.2,2.2-10.4,3.4c-14.6,5.4-28.1,8.8-42.6,15.7c-3.9,1.8-8.2,4-12.6,5.7c-0.4,4.6,1.4,9.2,0.3,14.5c-1.2,5.8-4.6,12.5-7.7,18.6c4.3,0.4,8.6,0.8,12.1,2.3c12,5,3.3,9.1,9.4,17.6c5.1,7.2,15.6,13,25.6,18.2c1.1-0.5,2.3-0.8,2.5-1.2c0.9-1.7,0-4.4,0.8-5.9c2.7-5,9.7-11.1,11.4-16.5c2.5-8.1-0.3-12.5,6.7-19.4c6.2-6.2,10.9-7.1,18.7-5.2c7.7,1.8,12.1,4.2,15.5-5.9C601.6,268.7,585.8,253.7,584,240.9z"/>
          <path class="stroke" d="M503,264.3c-0.3,0.1-0.6,0.2-0.9,0.4c0,0.3,0,0.7,0,1"/>
          <path class="stroke" d="M502.1,267.5c0.2,3.7,1.1,7.4,0.3,11.6c-1.1,5.2-4,11.2-6.8,16.8"/>
          <path class="stroke" d="M495.1,296.8c-0.1,0.3-0.3,0.6-0.4,0.9c0.3,0,0.7,0.1,1,0.1"/>
          <path class="stroke" d="M497.7,298c3.3,0.3,6.4,0.9,9.1,2c12,5,3.3,9.1,9.4,17.6c4.8,6.8,14.4,12.3,23.8,17.3"/>
          <path class="stroke" d="M540.9,335.3c0.3,0.2,0.6,0.3,0.9,0.5c0.3-0.1,0.6-0.3,0.9-0.4"/>
          <path class="stroke" d="M544.4,334.4c0.8-1.7-0.1-4.3,0.7-5.8c2.7-5,9.7-11.1,11.4-16.5c2.5-8.1-0.3-12.5,6.7-19.4c6.2-6.2,10.9-7.1,18.7-5.2c7.7,1.8,12.1,4.2,15.5-5.9c4.3-13-11.5-28-13.3-40.8c-1.2-9.1-1.7-13.9-10.2-7.8c-2.6,1.9-2.9,4.8-6.1,6.8c-2.9,1.8-7.2,2.2-10.4,3.4c-14.6,5.4-28.1,8.8-42.6,15.7c-3.3,1.6-7,3.4-10.7,5"/>
        </g>

        <!-- 서초구 -->
        <g id="map-region-seocho" class="region">
          <path class="area" d="M465.2,405.1c-4.5-0.4-4.4,3.4-7.8,4.4c-3.1,0.9-6.5-1.3-10.3,0.1c-2.9,1.1-3.8,5.1-7.1,6c-3.4,0.9-17-2.3-19.8-4.6c-6.2-4.9-2.3-13.3-7.1-18.3c-5.1-5.4-14.9-2.6-19.8-8.5c-3.7-4.5-5.7-16.1-7.3-21.9c-2.6-9.4-1.1-24.5-5.2-32.6c-2.3-4.5-7.1-6.7-12.4-8.3c-12.1,12.5-24.9,26.3-43,25.5c-0.4,0-0.7-0.1-1.1-0.1c2,7.9,7.2,9.4,12.5,15.5c6.2,7.1,0.1,11.3-0.2,20.2c-0.3,8.2,2.7,14.8-3.2,22c-0.7,0.9-1.6,1.8-2.6,2.7c0.4,0.1,0.9,0.2,1.3,0.4c0.6-0.7,0.2-1.1,1-1.7c6,6,3.5,15.2,7.6,21.9c0.4,0.6,0.9,1.2,1.4,1.7c1.2-0.6,2.6-1.6,4.3-3.3c3.1-3.2,4.7-7.8,8.4-9.7c17.7-9.5,10.1,16.2,15.7,19.1c2.4,1.2,13.8,0.6,15.9-0.6c3.4-2.1,5.3-12.4,9.3-13.1c9.9-1.7,12,21.4,10.6,26.6c1,0.5,1.8,1.4,2.6,1.9c-3.4,3.4-8.1,9.8-4.3,14.8c1.8,2.3,11.1,5.2,14.7,7.6c7.2,4.8,20.8,11.4,29.2,7.9c-0.9-4.2,2.1-5.2,2.7-7.9c0.4-1.5,1-7.4,1.1-7.7c2.7-6.6,5.8-3.4,13.7-6c11.9-4,10.3-17.8,13.2-29.4c3.1,0.7,4.4-0.5,5.7-1.7c-3.6-5.7-9.6-10.3-13.4-15.1C468.4,408.9,471.1,405.6,465.2,405.1z"/>
          <path class="stroke" d="M369.3,321.7c-0.3-0.1-0.6-0.2-1-0.3c-0.2,0.2-0.5,0.5-0.7,0.7"/>
          <path class="stroke" d="M366.2,323.6c-11.3,11.7-23.4,23.7-39.9,23.3"/>
          <path class="stroke" d="M325.3,346.9c-0.3,0-0.7-0.1-1-0.1c0.1,0.3,0.2,0.7,0.3,1"/>
          <path class="stroke" d="M325.2,349.7c2.4,5.5,7,7.3,11.6,12.7c6.2,7.1,0.1,11.3-0.2,20.2c-0.3,8.2,2.7,14.8-3.2,22c-0.4,0.4-0.8,0.9-1.2,1.3"/>
          <path class="stroke" d="M331.5,406.5c-0.2,0.2-0.5,0.5-0.7,0.7c0.4,0.1,0.9,0.2,1.3,0.4c0.3-0.4,0.4-0.6,0.5-0.9"/>
          <path class="stroke" d="M332.5,406.7c0.1-0.3,0.2-0.5,0.6-0.8c0.2,0.2,0.5,0.5,0.7,0.7"/>
          <path class="stroke" d="M335,408.4c3.5,5.9,2.1,13.6,5.7,19.4c0,0,0.1,0.1,0.1,0.1"/>
          <path class="stroke" d="M341.4,428.7c0.2,0.3,0.4,0.5,0.7,0.7c0.3-0.1,0.6-0.3,0.9-0.5"/>
          <path class="stroke" d="M344.6,427.8c0.6-0.5,1.2-1,1.8-1.7c3.1-3.2,4.7-7.8,8.4-9.7c17.7-9.5,10.1,16.2,15.7,19.1c2.4,1.2,13.8,0.6,15.9-0.6c3.4-2.1,5.3-12.4,9.3-13.1c8.9-1.5,11.5,17.2,10.9,24.7"/>
          <path class="stroke" d="M406.4,447.4c-0.1,0.4-0.1,0.7-0.2,1c0.3,0.2,0.6,0.3,0.8,0.5"/>
          <path class="stroke" d="M408,449.7c0.3,0.2,0.5,0.4,0.8,0.6c-0.2,0.2-0.5,0.5-0.7,0.7"/>
          <path class="stroke" d="M406.8,452.5c-2.9,3.6-5.3,8.5-2.2,12.5c1.8,2.3,11.1,5.2,14.7,7.6c6.7,4.4,18.9,10.4,27.3,8.5"/>
          <path class="stroke" d="M447.6,480.9c0.3-0.1,0.6-0.2,0.9-0.3c-0.1-0.4-0.1-0.7-0.1-1"/>
          <path class="stroke" d="M448.6,477.7c0.6-2,2.2-3.1,2.7-5c0.4-1.5,1-7.4,1.1-7.7c2.7-6.6,5.8-3.4,13.7-6c11.3-3.8,10.4-16.4,12.7-27.5"/>
          <path class="stroke" d="M479,430.5c0.1-0.3,0.1-0.7,0.2-1c0.4,0.1,0.7,0.1,1,0.2"/>
          <path class="stroke" d="M481.6,429.7c0.8-0.1,1.4-0.4,2-0.8"/>
          <path class="stroke" d="M484.2,428.5c0.3-0.2,0.5-0.4,0.7-0.7c-0.2-0.3-0.4-0.6-0.5-0.8"/>
          <path class="stroke" d="M483.2,425.4c-3.6-4.6-8.5-8.6-11.7-12.7c-3-3.8-0.4-7.1-6.3-7.6c-4.5-0.4-4.4,3.4-7.8,4.4c-3.1,0.9-6.5-1.3-10.3,0.1c-2.9,1.1-3.8,5.1-7.1,6c-3.4,0.9-17-2.3-19.8-4.6c-6.2-4.9-2.3-13.3-7.1-18.3c-5.1-5.4-14.9-2.6-19.8-8.5c-3.7-4.5-5.7-16.1-7.3-21.9c-2.6-9.4-1.1-24.5-5.2-32.6c-2-4-6-6.1-10.5-7.7"/>
        </g>

        <!-- 송파구 -->
        <g id="map-region-songpa" class="region">
          <path class="area" d="M516.2,317.6c-6.1-8.5,2.7-12.6-9.4-17.6c-3.5-1.5-7.9-1.9-12.1-2.3c-1.2,2.3-2.3,4.6-3.2,6.7c-2,4.6-5.5,13.9-9.8,16.5c-4.8,2.9-18.5,1.4-24.4,1.7c-4.3,0.2-8.2,0.1-11.8-0.2c-1.3,10.5-0.1,25.4,4.2,32.4c6.8,11.2,20.9,16.2,32.8,19.8c18,5.4,28.5,27.1,35.4,45.5c0.1-2,0.7-4.2,0.3-6.1c4,1.4,8.1,3.5,12.8,3.2c1-5.5-2.7-9.7-4.1-14.5c6.4-3.1,10.5,2.7,17.5-0.8c8.3-4.1,5.4-8.8,7.7-15.1c4.7-12.6,25.1-20.2,2.5-27.8c-7.5-2.5-13.5-3.6-15.9-12.8c-1-3.7-0.7-5.7,1-9.1c0.3-0.5,1.1-1,1.9-1.3C531.8,330.6,521.3,324.8,516.2,317.6z"/>
          <path class="stroke" d="M495.7,297.8c-0.3,0-0.7-0.1-1-0.1c-0.2,0.3-0.3,0.6-0.4,0.9"/>
          <path class="stroke" d="M493.4,300.3c-0.7,1.4-1.3,2.7-1.9,4c-2,4.6-5.5,13.9-9.8,16.5c-4.8,2.9-18.5,1.4-24.4,1.7c-3.5,0.2-6.8,0.2-9.9-0.1"/>
          <path class="stroke" d="M446.5,322.4c-0.3,0-0.7-0.1-1-0.1c0,0.3-0.1,0.7-0.1,1"/>
          <path class="stroke" d="M445.2,325.3c-0.8,10.2,0.6,23.1,4.5,29.4c6.8,11.2,20.9,16.2,32.8,19.8c17.4,5.2,27.8,25.6,34.7,43.6"/>
          <path class="stroke" d="M517.6,419.1c0.1,0.3,0.2,0.6,0.4,0.9c0-0.3,0-0.7,0.1-1"/>
          <path class="stroke" d="M518.2,417.7c0.1-0.7,0.2-1.4,0.2-2"/>
          <path class="stroke" d="M518.4,414.9c0-0.3,0-0.7-0.1-1c0.3,0.1,0.6,0.2,0.9,0.3"/>
          <path class="stroke" d="M521.4,415.1c2.4,0.9,4.9,1.8,7.6,2"/>
          <path class="stroke" d="M530.1,417.2c0.3,0,0.7,0,1,0c0.1-0.3,0.1-0.7,0.1-1"/>
          <path class="stroke" d="M531.2,414.2c-0.3-3.5-2.3-6.6-3.6-9.8"/>
          <path class="stroke" d="M527.3,403.6c-0.1-0.3-0.2-0.6-0.3-0.9c0.3-0.1,0.6-0.3,0.9-0.4"/>
          <path class="stroke" d="M529.8,401.8c4.9-0.6,8.8,3,14.7,0.1c8.3-4.1,5.4-8.8,7.7-15.1c4.7-12.6,25.1-20.2,2.5-27.8c-7.5-2.5-13.5-3.6-15.9-12.8c-1-3.7-0.7-5.7,1-9.1c0.1-0.1,0.1-0.2,0.2-0.3"/>
          <path class="stroke" d="M540.9,336.2c0.3-0.2,0.6-0.3,0.9-0.4c-0.3-0.2-0.6-0.3-0.9-0.5"/>
          <path class="stroke" d="M539.1,334.4c-9.1-4.9-18.2-10.3-22.9-16.8c-6.1-8.5,2.7-12.6-9.4-17.6c-3-1.2-6.5-1.7-10.1-2.1"/>
        </g>

        <!-- 은평구 -->
        <g id="map-region-eunpyeong" class="region">
          <path class="area" d="M226.3,239.1c2.4-4.1,5.4-7.7,8.8-10.2c5-3.6,8.1-1,13.7-3c4.6-1.7,9.2-7.1,12.8-10.5c1.9-1.8,2.9-1,4.6-3.2c1.1-1.4,0.5-4.2,1.9-5.9c3.3-3.8,8.6-4.2,12.2-8.1c3.2-3.5,4.6-8.1,8.5-11.3c1.6-1.3,3-2.1,4.4-2.9c-0.6-2-0.8-4.1-0.9-7.5c-0.3-6.5-1.9-8.3,2.6-13.3c3.3-3.7,9.8-5.7,13.9-8.6c4.1-2.9,6.7-6,8.2-9.4c-2.7-3.3-5.5-6.8-6.5-7.8c-7-7.6-12.1-25.1-22.8-28.5c-8.8-2.8-20.3,12.4-30.2,16.1c-6.7,2.5-14.5,1.5-18.3,8.1c-2,3.4-4.7,15.9-5.1,20c-0.4,3.6,1.7,5.3,0.9,8.7c-0.6,2.3-3.4,4.8-4.5,7c-5.1,10,0.8,8.5,2.8,17.3c0.9,3.8-1.7,14.9-2.8,19c-1.9,7.2-5.3,11.9-12,14.1c-3.7,1.2-7.3,0.5-10.9-0.1C208.9,227.4,219.3,233.2,226.3,239.1z"/>
          <path class="stroke" d="M225.5,238.5c0.3,0.2,0.5,0.4,0.8,0.6c0.2-0.3,0.3-0.6,0.5-0.9"/>
          <path class="stroke" d="M227.9,236.6c2.1-3,4.5-5.7,7.2-7.7c5-3.6,8.1-1,13.7-3c4.6-1.7,9.2-7.1,12.8-10.5c1.9-1.8,2.9-1,4.6-3.2c1.1-1.4,0.5-4.2,1.9-5.9c3.3-3.8,8.6-4.2,12.2-8.1c3.2-3.5,4.6-8.1,8.5-11.3c0.9-0.8,1.8-1.4,2.7-1.9"/>
          <path class="stroke" d="M292.3,184.6c0.3-0.2,0.6-0.3,0.9-0.5c-0.1-0.3-0.2-0.6-0.3-1"/>
          <path class="stroke" d="M292.6,181.2c-0.2-1.3-0.3-2.7-0.3-4.6c-0.3-6.5-1.9-8.3,2.6-13.3c3.3-3.7,9.8-5.7,13.9-8.6c3.4-2.4,5.7-4.9,7.3-7.6"/>
          <path class="stroke" d="M316.5,146.2c0.2-0.3,0.3-0.6,0.4-0.9c-0.2-0.3-0.4-0.5-0.6-0.8"/>
          <path class="stroke" d="M315,143c-2-2.5-3.8-4.7-4.5-5.5c-7-7.6-12.1-25.1-22.8-28.5c-8.8-2.8-20.3,12.4-30.2,16.1c-6.7,2.5-14.5,1.5-18.3,8.1c-2,3.4-4.7,15.9-5.1,20c-0.4,3.6,1.7,5.3,0.9,8.7c-0.6,2.3-3.4,4.8-4.5,7c-5.1,10,0.8,8.5,2.8,17.3c0.9,3.8-1.7,14.9-2.8,19c-1.9,7.2-5.3,11.9-12,14.1c-3.1,1-6,0.7-8.9,0.2"/>
          <path class="stroke" d="M208.5,219.2c-0.3-0.1-0.7-0.1-1-0.2c0.1,0.3,0.1,0.7,0.2,1"/>
          <path class="stroke" d="M208.3,221.9c2.7,6.3,10.4,11.2,16.4,15.9"/>
        </g>

        <!-- 노원구 -->
        <g id="map-region-nowon" class="region">
          <path class="area" d="M501.5,131.4c-5-5.7-11.5,0.6-18-1.7c-7.4-2.6-6.5-9-9.5-14.8c-3.9-7.5-7-4.8,1-11.1c3.3-2.5,4.1,0.3,6-4.6c0.5-1.2-1.2-7.3-0.9-9.5l-1.7-5.2c-1.9-3.3-8.3-11.1-7.2-15c0.8-2.8,16.3-12.7,5.5-17c-8.3-3.3-7.9,8-14-3.6c-4-7.7-3.4-9.3-12.4-2c-4.6,3.8-9.3,9-15.5,11.3c-8.9,3.3-7.4,0.2-11.6-4.1c-0.9,3.8-1.6,7.7-2.2,12.1c-1.1,7.9-5.4,16-4.4,24.3c0.9,7.8,6.1,14.8,6.8,22.8c0.6,7.5,3,16.6,1.8,24c-1.4-0.9-5.2-1.4-6.7-2.3c-2.8,4.8-2,8.6-5.3,13.1c-0.8,1.1-2.2,2.5-3.7,3.9c2.9,2.7,6,5.1,8.6,8.3c0.1,0.2,0.3,0.3,0.4,0.5c3.7,4.8,4.3,10.1,9.6,13.9c7.8,5.5,14.1,4,20.3,0.9c6.5-3.2,12.7-8,20.3-8.4c1.7-0.1,3.4-0.3,5.1,0c2,4.5,11.2,2.8,19.6-0.4c-0.2-0.2-0.4-0.4-0.6-0.5C480.9,153.8,513.5,145.3,501.5,131.4z"/>
          <path class="stroke" d="M423.8,54.8c-0.2-0.2-0.4-0.5-0.7-0.7c-0.1,0.3-0.2,0.6-0.2,1"/>
          <path class="stroke" d="M422.5,57c-0.6,2.9-1.1,5.9-1.6,9.2c-1.1,7.9-5.4,16-4.4,24.3c0.9,7.8,6.1,14.8,6.8,22.8c0.6,6.9,2.6,15,2,22"/>
          <path class="stroke" d="M425.2,136.3c0,0.3-0.1,0.7-0.1,1c-0.2-0.2-0.5-0.3-0.9-0.4"/>
          <path class="stroke" d="M422.6,136.4c-0.8-0.2-1.7-0.5-2.5-0.7"/>
          <path class="stroke" d="M419.3,135.4c-0.4-0.1-0.7-0.3-0.9-0.4c-0.2,0.3-0.3,0.6-0.5,0.9"/>
          <path class="stroke" d="M417.1,137.7c-1.4,3.6-1.4,6.8-4.1,10.4c-0.6,0.8-1.3,1.6-2.2,2.5"/>
          <path class="stroke" d="M410.1,151.3c-0.2,0.2-0.5,0.5-0.7,0.7c0.2,0.2,0.5,0.5,0.7,0.7"/>
          <path class="stroke" d="M411.6,154c2.2,2,4.5,3.9,6.4,6.3c0.1,0.2,0.3,0.3,0.4,0.5c3.7,4.8,4.3,10.1,9.6,13.9c7.8,5.5,14.1,4,20.3,0.9c6.5-3.2,12.7-8,20.3-8.4c1,0,2.1-0.1,3.1-0.2"/>
          <path class="stroke" d="M472.7,167c0.3,0,0.7,0.1,1,0.1c0.1,0.3,0.3,0.6,0.5,0.8"/>
          <path class="stroke" d="M475.9,169.2c3.3,1.4,9.5,0.3,15.5-1.8"/>
          <path class="stroke" d="M492.4,167.1c0.3-0.1,0.6-0.2,0.9-0.4c-0.2-0.2-0.4-0.4-0.6-0.5c0-0.1-0.1-0.1-0.1-0.2"/>
          <path class="stroke" d="M491.4,164.5c-7.5-11.5,21.6-19.8,10.1-33.1c-5-5.7-11.5,0.6-18-1.7c-7.4-2.6-6.5-9-9.5-14.8c-3.9-7.5-7-4.8,1-11.1c3.3-2.5,4.1,0.3,6-4.6c0.5-1.2-1.2-7.3-0.9-9.5l-1.7-5.2c-1.9-3.3-8.3-11.1-7.2-15c0.8-2.8,16.3-12.7,5.5-17c-8.3-3.3-7.9,8-14-3.6c-4-7.7-3.4-9.3-12.4-2c-4.6,3.8-9.3,9-15.5,11.3c-7.8,2.9-7.6,0.9-10.3-2.6"/>
        </g>

        <!-- 강북구 -->
        <g id="map-region-gangbuk" class="region">
          <path class="area" d="M418,160.3c-2.6-3.1-5.7-5.5-8.6-8.3c-1.4-1.3-2.8-2.7-3.9-4.3c-4-5.3-5.8-12.1-10.6-16.6c-4.8-4.5-12.1-5.5-16.6-10.9c-5.4-6.5-1.1-8.6,1.1-17.6c1.2-5,6.6-18.8-3.6-16.7c2-4.1-0.5-4.6-1.8-6.8c-0.1-0.1-5.2-5-5.8-5.5c-5.1-3.8-7.6-5.5-8.8-8.9c-2.3,0.3-4.7,0.3-6.3,1.3c-4.3,2.7-6.8,8.5-10.5,12.2c12.2,9.9-0.6,20.5-7.9,27.7c-10.2-4.2-3.3,9.2-2.2,12.1c2.2,5.8,3.6,13.6,1.5,20.2c-0.1,0.2-0.2,0.5-0.3,0.8c2.5,4.3,1.4,5.2,6.4,8.5c6.5,4.2,17.2,6.2,22.8,12.1c5.3,5.6,3.2,16.4,9.3,20.2c5.6,3.5,16.9,3.1,22.5,1.9c1.3,2.7,2.3,1.9,4.3,3.2c3.7-8.5,11.6-17,19.4-24.4C418.3,160.6,418.2,160.4,418,160.3z"/>
          <path class="stroke" d="M376.8,85.9c-0.3,0-0.6,0.1-1,0.2c0.2-0.3,0.3-0.6,0.4-0.9"/>
          <path class="stroke" d="M376.5,83.1c-0.2-1.6-1.6-2.4-2.6-3.9c-0.1-0.1-5.2-5-5.8-5.5c-4.1-3.1-6.5-4.8-7.9-7.1"/>
          <path class="stroke" d="M359.7,65.8c-0.1-0.3-0.3-0.6-0.4-0.9c-0.3,0-0.7,0.1-1,0.1"/>
          <path class="stroke" d="M356.4,65.2c-1.3,0.2-2.5,0.4-3.4,1c-3.8,2.3-6.1,7.2-9.2,10.8"/>
          <path class="stroke" d="M343.3,77.7c-0.2,0.2-0.5,0.5-0.7,0.7c0.3,0.2,0.5,0.4,0.8,0.6"/>
          <path class="stroke" d="M344.7,80.3c7.9,8.7-1.8,17.8-8.6,24.4"/>
          <path class="stroke" d="M335.4,105.4c-0.2,0.2-0.5,0.5-0.7,0.7c-0.3-0.1-0.6-0.3-0.9-0.4"/>
          <path class="stroke" d="M331.8,105.3c-5.8-0.4-0.3,10.3,0.7,12.9c2.1,5.5,3.5,12.8,1.8,19.2"/>
          <path class="stroke" d="M334,138.2c0,0,0,0.1,0,0.1c-0.1,0.2-0.2,0.5-0.3,0.8c0.2,0.3,0.3,0.6,0.5,0.9"/>
          <path class="stroke" d="M335,141.8c1,2.2,1.3,3.4,5.1,5.9c6.5,4.2,17.2,6.2,22.8,12.1c5.3,5.6,3.2,16.4,9.3,20.2c5,3.1,14.6,3.1,20.5,2.2"/>
          <path class="stroke" d="M393.7,182.1c0.3-0.1,0.7-0.1,1-0.2c0.2,0.3,0.3,0.6,0.5,0.9"/>
          <path class="stroke" d="M395.9,183.7c0.5,0.4,1,0.5,1.6,0.7"/>
          <path class="stroke" d="M398.1,184.7c0.3,0.1,0.6,0.3,0.9,0.5c0.1-0.3,0.3-0.6,0.4-0.9"/>
          <path class="stroke" d="M400.3,182.5c3.8-7.1,10.2-14.1,16.7-20.4"/>
          <path class="stroke" d="M417.7,161.4c0.2-0.2,0.5-0.5,0.7-0.7c-0.1-0.2-0.2-0.3-0.4-0.5c-0.1-0.1-0.2-0.2-0.2-0.3"/>
          <path class="stroke" d="M416.5,158.5c-2.2-2.3-4.7-4.3-7.1-6.5c-1.4-1.3-2.8-2.7-3.9-4.3c-4-5.3-5.8-12.1-10.6-16.6c-4.8-4.5-12.1-5.5-16.6-10.9c-5.4-6.5-1.1-8.6,1.1-17.6c1.2-4.7,5.8-16.8-1.6-16.9"/>
        </g>

        <!-- 중랑구 -->
        <g id="map-region-jungnang" class="region">
          <path class="area" d="M506.9,177.4c-2.2-11-7.7-5.3-13.6-10.7c-8.4,3.2-17.7,4.9-19.6,0.4c-1.7-0.3-3.4-0.1-5.1,0c-7.6,0.3-13.9,5.2-20.3,8.4c0.1,6.1-1.4,11.9-2.9,17.7c-1.5,6.2-2.9,12.4-1.8,19c0.8,5.3,5.6,10.7,7.4,16.5c2.3,7.3,4.3,14.5,3.8,22.5c0.5,0,1.1,0,1.6,0.1c5.7,0.4,13.5,1.9,18.2,1c4.5-0.9,8.1-3.1,12.1-5c0-0.6,0-1.3-0.1-2c-0.9-8.7-3.4-10.6,3.4-18.5c4.7-5.4,9.7-7.9,13.2-12.9c5.1-7.2,2.5-7.9,1.8-15.6C504.5,191.1,508.3,184.8,506.9,177.4z"/>
          <path class="stroke" d="M494.1,167.4c-0.3-0.2-0.5-0.4-0.8-0.6c-0.3,0.1-0.6,0.2-0.9,0.4"/>
          <path class="stroke" d="M490.4,167.8c-6.3,2.1-12.5,3-15.4,0.9"/>
          <path class="stroke" d="M474.2,168c-0.2-0.3-0.4-0.5-0.5-0.8c-0.3-0.1-0.7-0.1-1-0.1"/>
          <path class="stroke" d="M470.8,167.1c-0.7,0-1.4,0.1-2.1,0.1c-6.9,0.3-12.7,4.3-18.6,7.5"/>
          <path class="stroke" d="M449.2,175.1c-0.3,0.2-0.6,0.3-0.9,0.5c0,0.3,0,0.7,0,1"/>
          <path class="stroke" d="M448.3,178.5c-0.3,5-1.6,9.9-2.8,14.7c-1.5,6.2-2.9,12.4-1.8,19c0.8,5.3,5.6,10.7,7.4,16.5c2.1,6.7,3.9,13.3,3.9,20.5"/>
          <path class="stroke" d="M454.9,250.2c0,0.3,0,0.7,0,1c0.3,0,0.7,0,1,0"/>
          <path class="stroke" d="M457.9,251.4c5.5,0.5,12.5,1.7,16.8,0.8c3.8-0.7,7-2.5,10.2-4.1"/>
          <path class="stroke" d="M485.9,247.6c0.3-0.1,0.6-0.3,0.9-0.4c0-0.3,0-0.7,0-1"/>
          <path class="stroke" d="M486.6,244.2c-1-7.8-3-9.9,3.6-17.4c4.7-5.4,9.7-7.9,13.2-12.9c5.1-7.2,2.5-7.9,1.8-15.6c-0.7-7.2,3.2-13.5,1.7-20.9c-2-10-6.7-6.2-12-9.5"/>
        </g>

        <!-- 광진구 -->
        <g id="map-region-gwangjin" class="region">
          <path class="area" d="M502.1,264.6c-6.4,2.4-13.2,3.8-19.4,1.3c0.9-6.4,4.2-11.9,4.1-18.7c-4,1.9-7.5,4.1-12.1,5c-4.7,0.9-12.6-0.6-18.2-1c-3.2,5.7-6.7,12.2-9.6,18.6c-2.4,5.3-4.3,10.5-5.2,15.3c-1.3,6.6-2.4,17.7-6.3,23.3c-2.4,3.4-6.4,5.1-8.7,8.9c0,0.1-0.1,0.2-0.1,0.2c6.2,2.4,12.2,4.1,18.9,4.7c3.7,0.4,7.6,0.5,11.8,0.2c5.9-0.3,19.5,1.3,24.4-1.7c4.3-2.6,7.7-11.9,9.8-16.5c0.9-2.1,2.1-4.4,3.2-6.7c3.1-6.1,6.5-12.8,7.7-18.6C503.5,273.9,501.7,269.2,502.1,264.6z"/>
          <path class="stroke" d="M502.1,265.6c0-0.3,0-0.7,0-1c-0.3,0.1-0.6,0.2-0.9,0.3"/>
          <path class="stroke" d="M499.3,265.6c-4.9,1.6-9.9,2.3-14.7,0.9"/>
          <path class="stroke" d="M483.6,266.3c-0.3-0.1-0.6-0.2-0.9-0.3c0-0.3,0.1-0.7,0.2-1"/>
          <path class="stroke" d="M483.3,263.1c1.1-4.6,3.1-8.9,3.5-13.9"/>
          <path class="stroke" d="M486.8,248.2c0-0.3,0-0.7,0-1c-0.3,0.1-0.6,0.3-0.9,0.4"/>
          <path class="stroke" d="M484.2,248.5c-3,1.5-5.9,3-9.4,3.7c-4.2,0.8-10.9-0.3-16.3-0.8"/>
          <path class="stroke" d="M457.5,251.3c-0.3,0-0.7-0.1-1-0.1c-0.2,0.3-0.3,0.6-0.5,0.9"/>
          <path class="stroke" d="M455.1,253.8c-2.8,5-5.7,10.6-8.1,16.1c-2.4,5.3-4.3,10.5-5.2,15.3c-1.3,6.6-2.4,17.7-6.3,23.3c-2.1,3-5.4,4.7-7.7,7.5"/>
          <path class="stroke" d="M427.1,316.7c-0.1,0.2-0.3,0.4-0.4,0.6c0,0.1-0.1,0.2-0.1,0.2c0.3,0.1,0.6,0.2,0.9,0.4"/>
          <path class="stroke" d="M429.4,318.6c5.2,1.9,10.4,3.1,16.1,3.7c3.7,0.4,7.6,0.5,11.8,0.2c5.9-0.3,19.5,1.3,24.4-1.7c4.3-2.6,7.7-11.9,9.8-16.5c0.9-2.1,2.1-4.4,3.2-6.7c3.1-6.1,6.5-12.8,7.7-18.6c0.9-4.5-0.2-8.5-0.3-12.5"/>
        </g>

        <!-- 강남구 -->
        <g id="map-region-gangnam" class="region">
          <path class="area" d="M518,420c-6.9-18.4-17.4-40.1-35.4-45.5c-11.9-3.6-26-8.6-32.8-19.8c-4.3-7-5.5-21.9-4.2-32.4c-6.7-0.7-12.7-2.3-18.9-4.7c-4-1.6-8.1-3.5-12.5-5.7c-14.5-7.2-19.1-13.1-32.2-3.2c-0.3,0.3-0.7,0.5-1,0.8c-4.2,3.4-8.4,7.5-12.6,11.9c5.2,1.6,10.1,3.7,12.4,8.3c4.1,8.1,2.6,23.2,5.2,32.6c1.6,5.8,3.6,17.4,7.3,21.9c4.9,5.9,14.7,3.1,19.8,8.5c4.8,5,0.9,13.4,7.1,18.3c2.8,2.3,16.4,5.4,19.8,4.6c3.3-0.9,4.2-4.9,7.1-6c3.8-1.4,7.2,0.8,10.3-0.1c3.4-1,3.2-4.8,7.8-4.4c5.9,0.5,3.3,3.8,6.3,7.6c3.8,4.8,9.8,9.4,13.4,15.1c1-0.9,1.9-1.9,3.5-2.2c4.3-0.6,5.7,0.8,9.5,2.2c8.7,3.2,12,4.3,16-6.1c1.2,0.2,2.9-0.4,4.1-0.3C518,421,518,420.5,518,420z"/>
          <path class="stroke" d="M445.4,323.3c0-0.3,0.1-0.7,0.1-1c-0.3,0-0.7-0.1-1-0.1"/>
          <path class="stroke" d="M442.6,322c-5.6-0.8-10.7-2.3-16-4.4c-4-1.6-8.1-3.5-12.5-5.7c-14.5-7.2-19.1-13.1-32.2-3.2c-0.3,0.3-0.7,0.5-1,0.8c-3.8,3-7.4,6.6-11.2,10.5"/>
          <path class="stroke" d="M369,320.7c-0.2,0.2-0.5,0.5-0.7,0.7c0.3,0.1,0.6,0.2,1,0.3"/>
          <path class="stroke" d="M371.1,322.4c4.1,1.5,7.7,3.6,9.5,7.3c4.1,8.1,2.6,23.2,5.2,32.6c1.6,5.8,3.6,17.4,7.3,21.9c4.9,5.9,14.7,3.1,19.8,8.5c4.8,5,0.9,13.4,7.1,18.3c2.8,2.3,16.4,5.4,19.8,4.6c3.3-0.9,4.2-4.9,7.1-6c3.8-1.4,7.2,0.8,10.3-0.1c3.4-1,3.2-4.8,7.8-4.4c5.9,0.5,3.3,3.8,6.3,7.6c3.4,4.3,8.7,8.5,12.3,13.5"/>
          <path class="stroke" d="M484.4,427c0.2,0.3,0.4,0.6,0.5,0.8c0.2-0.2,0.5-0.5,0.7-0.7"/>
          <path class="stroke" d="M487.2,426.1c0.4-0.2,0.8-0.3,1.2-0.4c4.3-0.6,5.7,0.8,9.5,2.2c8.1,3,11.5,4.1,15.3-4.3"/>
          <path class="stroke" d="M513.6,422.7c0.1-0.3,0.2-0.6,0.4-0.9c0.3,0,0.6,0,1,0"/>
          <path class="stroke" d="M517.1,421.5c0.4,0,0.7,0,1,0c-0.1-0.3-0.1-0.7-0.1-1"/>
          <path class="stroke" d="M517.4,418.6c-6.9-18.1-17.3-38.8-34.9-44.1c-11.9-3.6-26-8.6-32.8-19.8c-4-6.5-5.4-20.1-4.4-30.4"/>
        </g>

        <!-- 성북구 -->
        <g id="map-region-seongbuk" class="region">
          <path class="area" d="M428,174.6c-5.3-3.8-5.9-9.1-9.6-13.9c-7.8,7.4-15.8,15.9-19.4,24.4c-2.1-1.3-3.1-0.5-4.3-3.2c-5.6,1.2-16.8,1.6-22.5-1.9c-6.1-3.8-4.1-14.6-9.3-20.2c-5.6-6-16.3-7.9-22.8-12.1c-5-3.3-3.9-4.2-6.4-8.5c-1.3,3-5.5,10.4-9.3,12c0.8,8.1,3.3,16.1,5.9,23.9c2,5.7,4.3,11.4,5.6,17.2c0.9,3.8,2.3,3.5,1.6,7.8c-0.5,3.3-4.2,6.1-4.2,10.3c6.3,3.6,13,1.5,17.9,7.1c1.9,2.2,1.5,6.4,3.4,8.1c2,1.7,6.5,1.5,8.9,2.6c5.5,2.5,8.5,7.4,14.8,7.7c0.1,0,2.1-0.3,4.3-0.7c2.8-0.5,5.9-1,6.2-1.1c4.4-1.4,5.4-2.9,8.9-5.9c5.6-4.8,13.1-7.7,18.2-13.2c4.8-5.3,6.5-11.8,13-15.5c3-1.7,7.2-1.6,10.2-2.8c2.3-0.9,4.3-2.3,6.4-3.3c1.4-5.8,3-11.6,2.9-17.7C442.1,178.6,435.8,180.1,428,174.6z"/>
          <path class="stroke" d="M419,161.6c-0.2-0.3-0.4-0.5-0.6-0.8c-0.2,0.2-0.5,0.5-0.7,0.7"/>
          <path class="stroke" d="M416.3,162.8c-6.6,6.4-12.9,13.4-16.5,20.5"/>
          <path class="stroke" d="M399.4,184.2c-0.1,0.3-0.3,0.6-0.4,0.9c-0.3-0.2-0.6-0.4-0.9-0.5"/>
          <path class="stroke" d="M397,184.2c-0.6-0.2-1-0.4-1.5-0.9"/>
          <path class="stroke" d="M395.1,182.8c-0.2-0.2-0.3-0.5-0.5-0.9c-0.3,0.1-0.6,0.1-1,0.2"/>
          <path class="stroke" d="M391.7,182.4c-6,0.7-14.8,0.6-19.5-2.4c-6.1-3.8-4.1-14.6-9.3-20.2c-5.6-6-16.3-7.9-22.8-12.1c-4.3-2.8-4.1-3.9-5.5-6.8"/>
          <path class="stroke" d="M334.1,140c-0.1-0.3-0.3-0.6-0.5-0.9c-0.1,0.3-0.3,0.6-0.4,0.9"/>
          <path class="stroke" d="M332.3,141.8c-1.5,2.8-3.9,6.4-6.3,8.3"/>
          <path class="stroke" d="M325.2,150.7c-0.3,0.2-0.6,0.4-0.9,0.5c0,0.3,0.1,0.7,0.1,1"/>
          <path class="stroke" d="M324.7,154.1c1.1,7.1,3.2,14.1,5.6,20.9c2,5.7,4.3,11.4,5.6,17.2c0.9,3.8,2.3,3.5,1.6,7.8c-0.4,2.8-3.1,5.2-3.9,8.3"/>
          <path class="stroke" d="M333.3,209.3c0,0.3-0.1,0.7-0.1,1c0.3,0.2,0.6,0.3,0.9,0.5"/>
          <path class="stroke" d="M336,211.6c5.4,1.9,11,1,15.2,5.9c1.9,2.2,1.5,6.4,3.4,8.1c2,1.7,6.5,1.5,8.9,2.6c5.5,2.5,8.5,7.4,14.8,7.7c0.1,0,2.1-0.3,4.3-0.7c2.8-0.5,5.9-1,6.2-1.1c4.4-1.4,5.4-2.9,8.9-5.9c5.6-4.8,13.1-7.7,18.2-13.2c4.8-5.3,6.5-11.8,13-15.5c3-1.7,7.2-1.6,10.2-2.8c1.6-0.6,3.1-1.5,4.6-2.4"/>
          <path class="stroke" d="M444.6,193.7c0.3-0.2,0.6-0.3,0.9-0.5c0.1-0.3,0.2-0.6,0.2-1"/>
          <path class="stroke" d="M446.1,190.5c1.1-4.3,2-8.6,2.2-13.1"/>
          <path class="stroke" d="M448.3,176.5c0-0.3,0-0.7,0-1c-0.3,0.1-0.6,0.3-0.9,0.4"/>
          <path class="stroke" d="M445.7,176.7c-5.4,2.2-11,2.6-17.7-2.1c-4.7-3.4-5.7-7.9-8.5-12.3"/>
        </g>

        <!-- 종로구 -->
        <g id="map-region-jongno" class="region">
          <path class="area" d="M382.5,235.1c-2.2,0.4-4.1,0.7-4.3,0.7c-6.3-0.3-9.3-5.2-14.8-7.7c-2.4-1.1-6.9-0.9-8.9-2.6c-1.9-1.6-1.5-5.9-3.4-8.1c-4.9-5.6-11.6-3.5-17.9-7.1c0.1-4.2,3.7-6.9,4.2-10.3c0.7-4.3-0.7-4-1.6-7.8c-1.3-5.7-3.6-11.4-5.6-17.2c-2.6-7.8-5.1-15.8-5.9-23.9c-0.6,0.3-1.2,0.4-1.7,0.3c-0.5-0.1-3.1-3-5.7-6.2c-1.5,3.4-4.1,6.5-8.2,9.4c-4.1,2.9-10.6,4.9-13.9,8.6c-4.5,5-3,6.8-2.6,13.3c0.2,3.4,0.3,5.4,0.9,7.5c0.5,1.6,1.3,3.2,2.5,5.5c3.5,6.2,3.6,5.7,3.5,13.1c-0.1,11.5,3.6,20.1-4.9,28.7c6.9,0.1,13.4,15.5,18,20.9c0.8,0.9,1.4,1.8,2,2.7c3.3-1.3,6.7-2.4,10.2-3c7.5-1.2,15,1.6,22.4,1.3c13.1-0.5,24.6-6.4,38.1-4.5C383.9,244.2,382.8,239.6,382.5,235.1z"/>
          <path class="stroke" d="M382.6,236.1c0-0.3-0.1-0.7-0.1-1c-0.3,0.1-0.7,0.1-1,0.2"/>
          <path class="stroke" d="M379.6,235.6c-0.8,0.1-1.3,0.2-1.3,0.2c-6.3-0.3-9.3-5.2-14.8-7.7c-2.4-1.1-6.9-0.9-8.9-2.6c-1.9-1.6-1.5-5.9-3.4-8.1c-4.5-5.1-10.4-3.8-16.1-6.2"/>
          <path class="stroke" d="M334.1,210.8c-0.3-0.1-0.6-0.3-0.9-0.5c0-0.3,0-0.7,0.1-1"/>
          <path class="stroke" d="M333.8,207.4c1.1-2.7,3.2-4.9,3.6-7.4c0.7-4.3-0.7-4-1.6-7.8c-1.3-5.7-3.6-11.4-5.6-17.2c-2.4-7.2-4.7-14.5-5.7-21.9"/>
          <path class="stroke" d="M324.5,152.2c0-0.3-0.1-0.7-0.1-1c-0.3,0.1-0.6,0.2-1,0.3"/>
          <path class="stroke" d="M321.9,151c-0.8-0.8-2.3-2.4-3.8-4.3"/>
          <path class="stroke" d="M317.6,146.1c-0.2-0.3-0.4-0.5-0.6-0.8c-0.1,0.3-0.3,0.6-0.4,0.9"/>
          <path class="stroke" d="M315.5,147.9c-1.6,2.4-3.7,4.6-6.7,6.7c-4.1,2.9-10.6,4.9-13.9,8.6c-4.5,5-3,6.8-2.6,13.3c0.2,3.4,0.3,5.4,0.9,7.5c0.5,1.6,1.3,3.2,2.5,5.5c3.5,6.2,3.6,5.7,3.5,13.1c-0.1,10.8,3.2,19.1-3.5,27.2"/>
          <path class="stroke" d="M295,230.6c-0.2,0.2-0.5,0.5-0.7,0.7c0.3,0,0.7,0,1,0.1"/>
          <path class="stroke" d="M297.1,232.2c5.9,3.3,11.2,15.4,15.1,20c0.3,0.4,0.6,0.7,0.9,1.1"/>
          <path class="stroke" d="M313.7,254.1c0.2,0.3,0.4,0.6,0.5,0.8c0.3-0.1,0.6-0.2,0.9-0.4"/>
          <path class="stroke" d="M317,253.9c2.4-0.8,4.9-1.5,7.4-1.9c7.5-1.2,15,1.6,22.4,1.3c12.4-0.5,23.5-5.8,36.1-4.7"/>
          <path class="stroke" d="M383.9,248.6c0.3,0,0.7,0.1,1,0.1c-0.1-0.3-0.1-0.7-0.2-1"/>
          <path class="stroke" d="M384.3,246.1c-0.7-3.1-1.3-6.2-1.6-9.2"/>
        </g>

        <!-- 서대문구 -->
        <g id="map-region-seodaemun" class="region">
          <path class="area" d="M314.2,254.9c-0.5-0.9-1.2-1.8-2-2.7c-4.6-5.3-11-20.8-18-20.9c8.5-8.6,4.8-17.2,4.9-28.7c0.1-7.3,0-6.8-3.5-13.1c-1.3-2.3-2.1-3.9-2.5-5.5c-1.4,0.8-2.8,1.7-4.4,2.9c-3.9,3.2-5.3,7.8-8.5,11.3c-3.6,3.9-8.8,4.3-12.2,8.1c-1.5,1.7-0.8,4.4-1.9,5.9c-1.7,2.2-2.7,1.4-4.6,3.2c-3.6,3.4-8.2,8.8-12.8,10.5c-5.5,2-8.7-0.6-13.7,3c-3.4,2.4-6.4,6.1-8.8,10.2c1,0.8,1.9,1.6,2.7,2.4c10.9,11,20.9,15.9,35.3,21.2c-2.1,13.7,28.9,14.5,41.5,10c1.7-0.6,3.1-1.3,4-2.1C316.4,264.9,317.6,260.2,314.2,254.9z"/>
          <path class="stroke" d="M295.3,231.5c-0.3-0.1-0.7-0.1-1-0.1c0.2-0.2,0.5-0.5,0.7-0.7"/>
          <path class="stroke" d="M296.2,229.1c6-7.9,2.9-16,3-26.5c0.1-7.3,0-6.8-3.5-13.1c-0.8-1.4-1.4-2.6-1.9-3.7"/>
          <path class="stroke" d="M293.5,185c-0.1-0.3-0.2-0.6-0.3-0.9c-0.3,0.2-0.6,0.3-0.9,0.5"/>
          <path class="stroke" d="M290.6,185.6c-0.6,0.4-1.2,0.9-1.9,1.4c-3.9,3.2-5.3,7.8-8.5,11.3c-3.6,3.9-8.8,4.3-12.2,8.1c-1.5,1.7-0.8,4.4-1.9,5.9c-1.7,2.2-2.7,1.4-4.6,3.2c-3.6,3.4-8.2,8.8-12.8,10.5c-5.5,2-8.7-0.6-13.7,3c-2.9,2.1-5.6,5.1-7.8,8.5"/>
          <path class="stroke" d="M226.8,238.2c-0.2,0.3-0.3,0.6-0.5,0.9c0.3,0.2,0.5,0.4,0.8,0.6"/>
          <path class="stroke" d="M228.6,241.1c0.1,0.1,0.3,0.3,0.4,0.4c10.4,10.5,20,15.4,33.4,20.5"/>
          <path class="stroke" d="M263.4,262.4c0.3,0.1,0.6,0.2,0.9,0.3c-0.1,0.3-0.1,0.7-0.1,1"/>
          <path class="stroke" d="M264.4,265.7c2.5,10.8,29.8,11.2,41.5,7c1.7-0.6,3.1-1.3,4-2.1c6.5-5.7,7.7-10.4,4.4-15.7c-0.5-0.9-1.2-1.8-2-2.7c-4.1-4.8-9.8-18-16-20.5"/>
        </g>

        <!-- 마포구 -->
        <g id="map-region-mapo" class="region">
          <path class="area" d="M305.8,272.7c-12.6,4.5-43.7,3.7-41.5-10c-14.4-5.3-24.4-10.2-35.3-21.2c-0.8-0.8-1.7-1.6-2.7-2.4c-7-5.8-17.5-11.6-18.8-20c-2.7-0.4-5.5-0.7-8.2,0.1c-7.3,2.2-6,10.1-10.6,15.4c-3.7,4.2-12.4,7.1-20.7,7.8c4.6,8.1,13,14.7,19.9,19.6c9.9,7,18.9,14.6,28.7,22.6c-0.2,0.4-0.4,0.7-0.6,1.1c6.6,4.9,11.6,11.9,20.7,14.2c11,2.7,26.6,1.7,34.6,8.9c1.7,1.6,3.2,3.7,4.6,5.7c2.3,0.2,4.5,0.7,6.8,0.1c7-1.7,9.7-7.9,13-13.7c4.5-7.7,9-16.2,15.8-20.8C309.7,277.5,307.8,275.1,305.8,272.7z"/>
          <path class="stroke" d="M306.5,273.5c-0.2-0.3-0.4-0.5-0.6-0.8c-0.3,0.1-0.6,0.2-0.9,0.3"/>
          <path class="stroke" d="M303,273.6c-13.1,3.3-37.7,2-38.7-8.9"/>
          <path class="stroke" d="M264.2,263.7c0-0.3,0-0.7,0.1-1c-0.3-0.1-0.6-0.2-0.9-0.3"/>
          <path class="stroke" d="M261.5,261.7c-12.9-5-22.3-9.9-32.4-20.1c-0.8-0.8-1.7-1.6-2.7-2.4c-6.5-5.4-15.8-10.7-18.3-18.1"/>
          <path class="stroke" d="M207.7,220c-0.1-0.3-0.1-0.6-0.2-1c-0.3-0.1-0.7-0.1-1-0.1"/>
          <path class="stroke" d="M204.6,218.7c-1.8-0.1-3.5-0.1-5.3,0.5c-7.3,2.2-6,10.1-10.6,15.4c-3.4,3.8-11,6.6-18.8,7.6"/>
          <path class="stroke" d="M168.9,242.3c-0.3,0-0.7,0.1-1,0.1c0.2,0.3,0.3,0.6,0.5,0.9"/>
          <path class="stroke" d="M169.5,244.9c4.8,6.9,12.2,12.7,18.3,17c9.3,6.7,18,13.8,27.2,21.3"/>
          <path class="stroke" d="M215.7,283.9c0.3,0.2,0.5,0.4,0.8,0.6c-0.2,0.4-0.4,0.7-0.6,1.1c0.3,0.2,0.5,0.4,0.8,0.6"/>
          <path class="stroke" d="M218.3,287.5c5.5,4.7,10.3,10.3,18.4,12.3c11,2.7,26.6,1.7,34.6,8.9c1.3,1.2,2.4,2.6,3.5,4.1"/>
          <path class="stroke" d="M275.3,313.6c0.2,0.3,0.4,0.5,0.6,0.8c0.3,0,0.7,0.1,1,0.1"/>
          <path class="stroke" d="M278.9,314.8c1.2,0.1,2.5,0.1,3.8-0.2c7-1.7,9.7-7.9,13-13.7c4.1-7.1,8.3-14.8,14.2-19.6"/>
          <path class="stroke" d="M310.7,280.6c0.3-0.2,0.5-0.4,0.8-0.6c-0.2-0.3-0.4-0.5-0.6-0.8"/>
          <path class="stroke" d="M309.5,277.3c-0.7-0.9-1.5-1.9-2.2-2.8"/>
        </g>

        <!-- 강서구 -->
        <g id="map-region-gangseo" class="region">
          <path class="area stroke" d="M187.8,261.9c-6.9-4.9-15.3-11.5-19.9-19.6c-7.6,0.6-14.9-0.5-18.1-4.1l-8.7-6.1c-9.5-10.6-23.7-17.2-33-28.7l-4.3-4.3c-5.9-4.5-11.9-2.2-11.3,7c0.6,9.4,6.2,9.7,0.2,19.1c-3.5,5.5-6.7,9.3-11.5,13.2c-3.8,3.1-15.9,8.2-13,13.7c-2,1.9-4.9,3.2-7.8,3.6c2.2,4.1,6.6,6.4,5,11.9c-6.7,0-9.8,7.5-16.2,6.3c0.4,4.7,7.4,5.2,11,7.7c4.4,3.1,4.4,5,9.8,6.9c4.2,1.5,8.8,0.9,13,2.8c5.4,2.5,5.4,8.5,12.2,7.9c11.3-1,11.7-11.8,25.2-4.3c3.1,1.7,5.1,3.3,6.6,5.5c1.6-5.4,2.5-11.2,8-9.9c1.9,6.9,9.1,25.8,15.6,29.7c3.5,2.1,11.9,0.8,14.7,0c5.9-1.7,6.4-3,9.1-10.6c2.5-7,2.2-11.6,2.6-18.5c0.5-7.9,0.1-6.9,7.8-5.2c6.9,1.5,15.1,6,22,5.6c3.6-0.2,6.8-1.8,9.3-5.8c0.2-0.3,0.4-0.7,0.6-1.1C206.7,276.6,197.6,269,187.8,261.9z"/>
        </g>

        <!-- 영등포구 -->
        <g id="map-region-yeongdeungpo" class="region">
          <path class="area" d="M280.3,319.7c-1.7-1.4-3-3.4-4.4-5.3c-1.5-2.1-2.9-4.2-4.6-5.7c-8-7.2-23.5-6.2-34.6-8.9c-9.2-2.3-14.2-9.2-20.7-14.2c-2.5,4-5.7,5.6-9.3,5.8c3.6,6.5,5.3,14.3,3.1,18.2c-2.7,4.7-8.3,6.2-9.6,12.1c-0.5,2.2,1.4,5.8,0.9,8.7c-0.5,3.1-2,4.1-3,6.6c7.4,2.6,16.4,5.4,18.7,12.5c2.9,8.9-2.8,17.7,1.7,26.9c2.7,5.6,5.3,8,8.7,8.8c1.8,0.4,3.8,0.3,6.1-0.1c1.2-5,1.5-7.3,8-13c6.9-6,11.7-8.1,14.4-17.4c2.7-9.4,3.5-12.8,12.4-16.3c6.6-2.6,13.7-3.6,19.8-6.4c0.5-0.9,1-1.7,1.5-2.6c0.4-0.6,0.7-1.2,1.1-1.8C287.6,323.9,283.7,322.7,280.3,319.7z"/>
          <path class="stroke" d="M216.7,286.2c-0.3-0.2-0.5-0.4-0.8-0.6c-0.2,0.3-0.4,0.6-0.6,0.8"/>
          <path class="stroke" d="M214.2,287.9c-1.7,1.8-3.6,2.8-5.6,3.2"/>
          <path class="stroke" d="M207.6,291.3c-0.3,0-0.7,0.1-1,0.1c0.2,0.3,0.3,0.6,0.5,0.9"/>
          <path class="stroke" d="M208,294c2.6,5.8,3.7,12.1,1.7,15.5c-2.7,4.7-8.3,6.2-9.6,12.1c-0.5,2.2,1.4,5.8,0.9,8.7c-0.4,2.3-1.3,3.4-2.1,4.8"/>
          <path class="stroke" d="M198.4,336c-0.1,0.3-0.3,0.6-0.4,0.9c0.3,0.1,0.6,0.2,0.9,0.3"/>
          <path class="stroke" d="M200.9,338c6.7,2.4,13.8,5.3,15.8,11.5c2.9,8.9-2.8,17.7,1.7,26.9c2.7,5.6,5.3,8,8.7,8.8c1.2,0.3,2.6,0.3,4.1,0.2"/>
          <path class="stroke" d="M232.2,385.2c0.3,0,0.7-0.1,1-0.1c0.1-0.3,0.2-0.7,0.2-1"/>
          <path class="stroke" d="M233.9,382.2c0.9-3.3,2.1-5.6,7.3-10.1c6.9-6,11.7-8.1,14.4-17.4c2.7-9.4,3.5-12.8,12.4-16.3c6.6-2.6,13.7-3.6,19.8-6.4c0.5-0.9,1-1.7,1.5-2.6c0,0,0.1-0.1,0.1-0.1"/>
          <path class="stroke" d="M289.9,328.4c0.2-0.3,0.4-0.6,0.5-0.8c-0.2-0.3-0.4-0.5-0.6-0.8"/>
          <path class="stroke" d="M288.3,325.4c-2.5-2.1-5.4-3.3-8.1-5.7c-1.7-1.4-3-3.4-4.4-5.3c-1.5-2.1-2.9-4.2-4.6-5.7c-8-7.2-23.5-6.2-34.6-8.9c-8.4-2.1-13.3-8.1-19.2-12.9"/>
        </g>

        <!-- 양천구 -->
        <g id="map-region-yangcheon" class="region">
          <path class="area" d="M206.6,291.4c-6.9,0.4-15.1-4.1-22-5.6c-7.7-1.7-7.3-2.6-7.8,5.2c-0.4,6.9-0.1,11.5-2.6,18.5c-2.7,7.6-3.3,8.9-9.1,10.6c-2.8,0.8-11.2,2.1-14.7,0c-6.5-3.9-13.6-22.7-15.6-29.7c-5.4-1.3-6.4,4.5-8,9.9c1.3,1.7,2.1,3.8,2.9,6.5c1.9,7.2,1.2,7.4-4.4,13c5.4,7.9,4.5,18.8,1.1,29.1c1.6-0.7,3.3-1.1,4.9-1.2c2.9,6.5,8,12.1,13.8,16.2c7.3-9.3,21.2-19.9,31.5-12.9c6,4,9.2,10.6,15.9,3.5c3.5-3.8,3.8-12.7,5.2-17.2c0.1-0.2,0.2-0.4,0.2-0.6c1-2.5,2.5-3.5,3-6.6c0.5-2.9-1.4-6.5-0.9-8.7c1.3-6,6.9-7.5,9.6-12.1C212,305.7,210.2,297.9,206.6,291.4z"/>
          <path class="stroke" d="M207.1,292.3c-0.2-0.3-0.3-0.6-0.5-0.9c-0.3,0-0.7,0-1,0"/>
          <path class="stroke" d="M203.7,291.3c-6.2-0.7-13.1-4.2-19-5.5c-7.7-1.7-7.3-2.6-7.8,5.2c-0.4,6.9-0.1,11.5-2.6,18.5c-2.7,7.6-3.3,8.9-9.1,10.6c-2.8,0.8-11.2,2.1-14.7,0c-5.9-3.6-12.5-19.8-15-27.8"/>
          <path class="stroke" d="M135.1,291.5c-0.1-0.3-0.2-0.7-0.3-1c-0.3-0.1-0.7-0.1-1-0.2"/>
          <path class="stroke" d="M132.1,290.5c-2.7,0.8-3.7,4.4-4.7,8.1"/>
          <path class="stroke" d="M127.1,299.5c-0.1,0.3-0.2,0.6-0.3,1c0.2,0.3,0.4,0.5,0.6,0.8"/>
          <path class="stroke" d="M128.3,302.9c0.6,1.2,1,2.5,1.4,4c1.8,6.5,1.3,7.3-3,11.7"/>
          <path class="stroke" d="M126,319.2c-0.2,0.2-0.5,0.5-0.7,0.7c0.2,0.3,0.4,0.6,0.5,0.8"/>
          <path class="stroke" d="M126.8,322.4c3.5,7.1,2.8,16.1,0.3,24.8"/>
          <path class="stroke" d="M126.8,348.1c-0.1,0.3-0.2,0.6-0.3,1c0.3-0.1,0.6-0.2,0.9-0.4"/>
          <path class="stroke" d="M128.4,348.4c0.5-0.1,1-0.3,1.5-0.4"/>
          <path class="stroke" d="M130.3,348c0.3,0,0.7-0.1,1-0.1c0.1,0.3,0.3,0.6,0.4,0.9"/>
          <path class="stroke" d="M132.8,350.7c2.7,4.7,6.5,8.8,10.7,12.2"/>
          <path class="stroke" d="M144.4,363.5c0.3,0.2,0.5,0.4,0.8,0.6c0.2-0.3,0.4-0.5,0.6-0.8"/>
          <path class="stroke" d="M147.1,361.8c7.6-8.6,20.1-17,29.6-10.6c6,4,9.2,10.6,15.9,3.5c3.5-3.8,3.8-12.7,5.2-17.2c0.1-0.2,0.2-0.4,0.2-0.6c1-2.5,2.5-3.5,3-6.6c0.5-2.9-1.4-6.5-0.9-8.7c1.3-6,6.9-7.5,9.6-12.1c2.1-3.6,0.8-10.3-2.1-16.4"/>
        </g>

        <!-- 구로구 -->
        <g id="map-region-guro" class="region">
          <path class="area" d="M227.1,385.2c-3.3-0.7-5.9-3.1-8.7-8.8c-4.5-9.2,1.2-18-1.7-26.9c-2.3-7.1-11.3-10-18.7-12.5c-0.1,0.2-0.2,0.4-0.2,0.6c-1.5,4.5-1.7,13.4-5.2,17.2c-6.7,7.1-9.9,0.5-15.9-3.5c-10.3-7-24.2,3.6-31.5,12.9c-5.8-4.2-10.9-9.7-13.8-16.2c-1.6,0.1-3.3,0.5-4.9,1.2c-2.9,8.8-7.5,17.1-11.6,23c5.4,5.3,6.5,9.7,2.8,16.5c4.5,3.3,11.2,11.5,15.5,13.1c2.1,0.8,7-0.9,9.6-0.7c2.4,0.2,9.4,4.2,11.3,3.3c4-1.8,1.9-6.7,3.5-9.6c2.4-4.7,2.4-3.2,7.2-6.7c6.3-4.7,11.4-11.1,17.3-15.7c5.7,4.6,9.3,6.6,11.8,12.9c0.3,0.8,0.6,1.6,0.9,2.3c2.2,0.2,4.3,0.8,6.5,1.8c4.6,2.2,9.9,8.6,14.8,9.6c6,1.3,9.7-1.3,11.4-5.6c0.3-0.7,0.5-1.4,0.6-2.1C228.2,390,227.5,387.5,227.1,385.2z"/>
          <path class="stroke" d="M227.2,386.2c-0.1-0.3-0.1-0.7-0.2-1c-0.3-0.1-0.6-0.2-1-0.3"/>
          <path class="stroke" d="M224.3,384.1c-2.1-1.3-4-3.7-5.9-7.7c-4.5-9.2,1.2-18-1.7-26.9c-2.1-6.5-9.8-9.5-16.8-11.9"/>
          <path class="stroke" d="M199,337.3c-0.3-0.1-0.6-0.2-0.9-0.3c-0.1,0.2-0.2,0.4-0.2,0.6c0,0.1-0.1,0.2-0.1,0.3"/>
          <path class="stroke" d="M197.2,339.8c-1,4.8-1.6,11.7-4.6,14.9c-6.7,7.1-9.9,0.5-15.9-3.5c-9.8-6.6-22.7,2.5-30.2,11.4"/>
          <path class="stroke" d="M145.8,363.4c-0.2,0.3-0.4,0.5-0.6,0.8c-0.3-0.2-0.5-0.4-0.8-0.6"/>
          <path class="stroke" d="M142.7,362.2c-4.2-3.4-7.9-7.7-10.4-12.4"/>
          <path class="stroke" d="M131.8,348.8c-0.1-0.3-0.3-0.6-0.4-0.9c-0.3,0-0.7,0.1-1,0.1"/>
          <path class="stroke" d="M129.3,348.2c-0.5,0.1-1,0.2-1.5,0.4"/>
          <path class="stroke" d="M127.4,348.7c-0.3,0.1-0.6,0.2-0.9,0.4c-0.1,0.3-0.2,0.6-0.3,0.9"/>
          <path class="stroke" d="M125.4,352.1c-2.6,6.8-6.1,13.3-9.3,18.3"/>
          <path class="stroke" d="M115.5,371.3c-0.2,0.3-0.4,0.6-0.6,0.8c0.2,0.2,0.5,0.5,0.7,0.7"/>
          <path class="stroke" d="M116.8,374.2c3.3,4,4,7.7,1.7,12.7"/>
          <path class="stroke" d="M118.2,387.7c-0.1,0.3-0.3,0.6-0.5,0.9c0.3,0.2,0.5,0.4,0.8,0.6"/>
          <path class="stroke" d="M120,390.5c4.3,3.9,9.6,9.8,13.2,11.2c2.1,0.8,7-0.9,9.6-0.7c2.4,0.2,9.4,4.2,11.3,3.3c4-1.8,1.9-6.7,3.5-9.6c2.4-4.7,2.4-3.2,7.2-6.7c5.7-4.3,10.5-10,15.8-14.5"/>
          <path class="stroke" d="M181.3,372.8c0.3-0.2,0.5-0.4,0.8-0.6c0.3,0.2,0.5,0.4,0.8,0.6"/>
          <path class="stroke" d="M184.4,374.1c4.3,3.4,7.3,5.6,9.4,11c0.1,0.1,0.1,0.3,0.2,0.4"/>
          <path class="stroke" d="M194.4,386.5c0.1,0.3,0.2,0.6,0.3,0.9c0.3,0,0.7,0.1,1,0.1"/>
          <path class="stroke" d="M197.6,388c1.2,0.3,2.4,0.7,3.6,1.3c4.6,2.2,9.9,8.6,14.8,9.6c6,1.3,9.7-1.3,11.4-5.6c0.3-0.7,0.5-1.4,0.6-2.1c0.2-0.8-0.2-2.4-0.5-4"/>
        </g>

        <!-- 관악구 -->
        <g id="map-region-gwanak" class="region">
          <path class="area" d="M342.1,429.5c-0.5-0.5-1-1.1-1.4-1.7c-4.1-6.6-1.6-15.8-7.6-21.9c-0.8,0.7-0.4,1-1,1.7c-0.4-0.2-0.9-0.3-1.3-0.4c-8.9-2.2-14.8,4.9-22.7-6.4c-5.2-7.5-4.2-14.4-4.7-23.3c-7.1,2-17.3,0.7-25.1,0.7c-5.6,0-16.1-3.9-20.7-1.8c3.3,7.4-14.9,6.8-20.1,7.9c-1.6,0.3-3,0.6-4.4,0.8c-2.3,0.4-4.3,0.5-6.1,0.1c0.4,2.3,1.2,4.8,0.9,6c-0.2,0.7-0.4,1.4-0.6,2.1c4.5,1.7,8.4,4,9.9,7.5c1,2.4-0.4,5.2,0.2,7c0.6,1.6,2.5,3.6,3.3,5.4c2.6,5.9,3,8.8,3.6,15.4c1.6,15.6,13.8,4.3,19.8,15.8c0.4,0.8,0.7,1.7,1,2.5c4.7,6.8,11.8,23.1,20.9,20.7l4.3-2.6c8.4,2.8,28.9-2.5,20.1-14.6c3-0.5,6-1.2,8.6-1.8c5.5-1.3,2.2,1.4,7.6-2.8c3.4-2.7,8.6-7.9,9.6-11.9c-1-0.5-2.8-1.7-3.5-1.9C337.1,430.3,339.4,430.8,342.1,429.5z"/>
          <path class="stroke" d="M341.2,429.9c0.3-0.1,0.6-0.2,0.9-0.4c-0.2-0.2-0.5-0.5-0.7-0.7"/>
          <path class="stroke" d="M340.2,426.9c-3.1-6-1.7-13.8-5.8-19.5"/>
          <path class="stroke" d="M333.7,406.6c-0.2-0.3-0.4-0.5-0.7-0.7c-0.4,0.3-0.5,0.6-0.6,0.8"/>
          <path class="stroke" d="M332.5,406.7c-0.1,0.3-0.1,0.5-0.5,0.9c-0.3-0.1-0.6-0.2-1-0.3"/>
          <path class="stroke" d="M329.2,406.9c-8.1-1.1-13.7,4.5-21.1-6.2c-4.8-6.9-4.3-13.4-4.6-21.4"/>
          <path class="stroke" d="M303.5,378.4c0-0.3,0-0.7,0-1c-0.3,0.1-0.6,0.2-1,0.2"/>
          <path class="stroke" d="M300.6,378c-6.8,1.1-15.4,0.1-22.2,0.1c-4.9,0-13.7-3.1-18.9-2.3"/>
          <path class="stroke" d="M258.5,376.1c-0.3,0.1-0.6,0.2-0.9,0.3c0.1,0.3,0.2,0.6,0.3,0.9"/>
          <path class="stroke" d="M257.7,379.2c-2.1,4.4-15.8,4.1-20.2,5c-1.6,0.3-3,0.6-4.4,0.8c-1.5,0.2-2.9,0.4-4.2,0.3"/>
          <path class="stroke" d="M228,385.3c-0.3,0-0.7-0.1-1-0.2c0.1,0.3,0.1,0.7,0.2,1"/>
          <path class="stroke" d="M227.7,388.2c0.3,1.2,0.5,2.3,0.3,3c0,0,0,0.1,0,0.1"/>
          <path class="stroke" d="M227.7,392.3c-0.1,0.3-0.2,0.6-0.3,0.9c0.3,0.1,0.6,0.2,0.9,0.4"/>
          <path class="stroke" d="M230.2,394.4c3.3,1.6,6,3.6,7.1,6.4c1,2.4-0.4,5.2,0.2,7c0.6,1.6,2.5,3.6,3.3,5.4c2.6,5.9,3,8.8,3.6,15.4c1.6,15.6,13.8,4.3,19.8,15.8c0.4,0.8,0.7,1.7,1,2.5c4.7,6.8,11.8,23.1,20.9,20.7l2.6-1.6"/>
          <path class="stroke" d="M289.7,465.6l0.9-0.5c0.3,0.1,0.6,0.2,1,0.3"/>
          <path class="stroke" d="M293.5,465.7c8.9,0.9,23.3-3.8,18.2-13.5"/>
          <path class="stroke" d="M311.2,451.3c-0.2-0.3-0.4-0.5-0.6-0.8c0.3-0.1,0.7-0.1,1-0.2"/>
          <path class="stroke" d="M313.6,449.9c1.9-0.4,3.9-0.8,5.6-1.2c5.5-1.3,2.2,1.4,7.6-2.8c2.9-2.3,7.1-6.4,8.9-10"/>
          <path class="stroke" d="M336.2,434.9c0.1-0.3,0.2-0.6,0.3-0.9c-0.3-0.1-0.6-0.3-0.9-0.5"/>
          <path class="stroke" d="M333.9,432.5c-0.4-0.2-0.7-0.4-0.9-0.4c0.3-0.1,0.6-0.3,0.9-0.4"/>
          <path class="stroke" d="M336.3,431c1.4-0.3,2.5-0.5,3.7-0.7"/>
        </g>
      </g>

      <g id="map-region-labels">
        <text class="map-region-label" x="264.0579" y="150.9733">은평구</text>
        <text class="map-region-label" x="119.7606" y="266.7263">강서구</text>
        <text class="map-region-label" x="133.9686" y="380.6755">구로구</text>
        <text class="map-region-label" x="276.1815" y="367.1833">동작구</text>
        <text class="map-region-label" x="315.0535" y="320.5563">용산구</text>
        <text class="map-region-label" x="216.5198" y="336.2585">영등포구</text>
        <text class="map-region-label" x="250.9319" y="288.6638">마포구</text>
        <text class="map-region-label" x="250.9612" y="244.0065">서대문구</text>
        <text class="map-region-label" x="311.5394" y="225.1984">종로구</text>
        <text class="map-region-label" x="367.7449" y="200.3381">성북구</text>
        <text class="map-region-label" x="357.4061" y="143.9323">강북구</text>
        <text class="map-region-label" x="381.9349" y="82.1364">도봉구</text>
        <text class="map-region-label" x="452.5989" y="146.405">노원구</text>
        <text class="map-region-label" x="468.3475" y="206.1921">중랑구</text>
        <text class="map-region-label" x="403.9349" y="239.8317">동대문구</text>
        <text class="map-region-label" x="392.3553" y="284.6237">성동구</text>
        <text class="map-region-label" x="451.4622" y="294.0768">광진구</text>
        <text class="map-region-label" x="534.1302" y="281.1559">강동구</text>
        <text class="map-region-label" x="480.5003" y="358.8259">송파구</text>
        <text class="map-region-label" x="408.0135" y="367.1843">강남구</text>
        <text class="map-region-label" x="368.994" y="405.3415">서초구</text>
        <text class="map-region-label" x="346.1234" y="270.3762">중구</text>
        <text class="map-region-label" x="154.8343" y="338.6696">양천구</text>
        <text class="map-region-label" x="272.6585" y="428.6686">관악구</text>
        <text class="map-region-label" x="202.2557" y="428.5773">금천구</text>
      </g>
    </g>

    <g id="map-icons">
      <!-- 중구 -->
      <g id="map-icon-jung" class="icon" transform="translate(324.9, 257.2)">
        <rect width="18" height="18" />
        <text transform="translate(9, 14)">0</text>
      </g>

      <!-- 강서구 -->
      <g id="map-icon-gangseo" class="icon" transform="translate(98.6, 253.2)">
        <rect width="18" height="18" />
        <text transform="translate(9, 14)">0</text>
      </g>

      <!-- 서대문구 -->
      <g id="map-icon-seodaemun" class="icon" transform="translate(229.5, 231.1)">
        <rect width="18" height="18" />
        <text transform="translate(9, 14)">0</text>
      </g>

      <!-- 은평구 -->
      <g id="map-icon-eunpyeong" class="icon" transform="translate(242.1, 137.8)">
        <rect width="18" height="18" />
        <text transform="translate(9, 14)">0</text>
      </g>

      <!-- 강북구 -->
      <g id="map-icon-gangbuk" class="icon" transform="translate(336.5, 130.3)">
        <rect width="18" height="18" />
        <text transform="translate(9, 14)">0</text>
      </g>

      <!-- 성북구 -->
      <g id="map-icon-seongbuk" class="icon" transform="translate(346.6, 187.4)">
        <rect width="18" height="18" />
        <text transform="translate(9, 14)">0</text>
      </g>

      <!-- 종로구 -->
      <g id="map-icon-jongno" class="icon" transform="translate(291.9, 212.1)">
        <rect width="18" height="18" />
        <text transform="translate(9, 14)">0</text>
      </g>

      <!-- 동대문구 -->
      <g id="map-icon-dongdaemun" class="icon" transform="translate(383.1, 226.9)">
        <rect width="18" height="18" />
        <text transform="translate(9, 14)">0</text>
      </g>

      <!-- 광진구 -->
      <g id="map-icon-gwangjin" class="icon" transform="translate(431, 280.2)">
        <rect width="18" height="18" />
        <text transform="translate(9, 14)">0</text>
      </g>

      <!-- 송파구 -->
      <g id="map-icon-songpa" class="icon" transform="translate(460.1, 346.1)">
        <rect width="18" height="18" />
        <text transform="translate(9, 14)">0</text>
      </g>

      <!-- 강남구 -->
      <g id="map-icon-gangnam" class="icon" transform="translate(387.7, 353.8)">
        <rect width="18" height="18" />
        <text transform="translate(9, 14)">0</text>
      </g>

      <!-- 서초구 -->
      <g id="map-icon-seocho" class="icon" transform="translate(349.4, 391.5)">
        <rect width="18" height="18" />
        <text transform="translate(9, 14)">0</text>
      </g>

      <!-- 동작구 -->
      <g id="map-icon-dongjak" class="icon" transform="translate(255.4, 354.1)">
        <rect width="18" height="18" />
        <text transform="translate(9, 14)">0</text>
      </g>

      <!-- 영등포구 -->
      <g id="map-icon-yeongdeungpo" class="icon" transform="translate(195.9, 323.6)">
        <rect width="18" height="18" />
        <text transform="translate(9, 14)">0</text>
      </g>

      <!-- 용산구 -->
      <g id="map-icon-yongsan" class="icon" transform="translate(295.1, 307.6)">
        <rect width="18" height="18" />
        <text transform="translate(9, 14)">0</text>
      </g>

      <!-- 성동구 -->
      <g id="map-icon-seongdong" class="icon" transform="translate(372, 271.4)">
        <rect width="18" height="18" />
        <text transform="translate(9, 14)">0</text>
      </g>

      <!-- 양천구 -->
      <g id="map-icon-yangcheon" class="icon" transform="translate(134.2, 325.6)">
        <rect width="18" height="18" />
        <text transform="translate(9, 14)">0</text>
      </g>

      <!-- 구로구 -->
      <g id="map-icon-guro" class="icon" transform="translate(113.2, 367.2)">
        <rect width="18" height="18" />
        <text transform="translate(9, 14)">0</text>
      </g>

      <!-- 관악구 -->
      <g id="map-icon-gwanak" class="icon" transform="translate(252.6, 415.6)">
        <rect width="18" height="18" />
        <text transform="translate(9, 14)">0</text>
      </g>

      <!-- 금천구 -->
      <g id="map-icon-geumcheon" class="icon" transform="translate(182.8, 415.6)">
        <rect width="18" height="18" />
        <text transform="translate(9, 14)">0</text>
      </g>

      <!-- 도봉구 -->
      <g id="map-icon-dobong" class="icon" transform="translate(360.4, 68.1)">
        <rect width="18" height="18" />
        <text transform="translate(9, 14)">0</text>
      </g>

      <!-- 중랑구 -->
      <g id="map-icon-jungnang" class="icon" transform="translate(447.8, 192.4)">
        <rect width="18" height="18" />
        <text transform="translate(9, 14)">0</text>
      </g>

      <!-- 마포구 -->
      <g id="map-icon-mapo" class="icon" transform="translate(230.2, 275.2)">
        <rect width="18" height="18" />
        <text transform="translate(9, 14)">0</text>
      </g>

      <!-- 노원구 -->
      <g id="map-icon-nowon" class="icon" transform="translate(431.5, 133.8)">
        <rect width="18" height="18" />
        <text transform="translate(9, 14)">0</text>
      </g>

      <!-- 강동구 -->
      <g id="map-icon-gangdong" class="icon" transform="translate(512.4, 268.1)">
        <rect width="18" height="18" />
        <text transform="translate(9, 14)">0</text>
      </g>
    </g>

    <g id="legend">
      <path id="legend-frame" d="M201,155.3H19c-2.1,0-3.9-1.7-3.9-3.9V19.2c0-2.1,1.7-3.9,3.9-3.9h182c2.1,0,3.9,1.7,3.9,3.9v132.3C204.9,153.6,203.1,155.3,201,155.3z"/>

      <text id="legend-title" x="24.3591" y="34.7829"></text>

      <text id="legend-label-0" class="legend-label" x="50.4623" y="141.8884"></text>
      <text id="legend-label-1" class="legend-label" x="50.4628" y="58.7819"></text>
      <text id="legend-label-2" class="legend-label" x="50.4628" y="79.553"></text>
      <text id="legend-label-3" class="legend-label" x="50.4628" y="100.3461"></text>
      <text id="legend-label-4" class="legend-label" x="50.4628" y="121.1172"></text>

      <g id="legend-icon-0" class="icon icon-0" transform="translate(26.3, 127.8)">
        <rect width="18" height="18"/>
        <text transform="translate(9, 14)">0</text>
      </g>

      <g id="legend-icon-1" class="icon icon-1" transform="translate(26.3, 44.5)">
        <rect width="18" height="18"/>
        <text transform="translate(9, 14)">1</text>
      </g>

      <g id="legend-icon-2" class="icon icon-2" transform="translate(26.3, 65.4)">
        <rect width="18" height="18"/>
        <text transform="translate(9, 14)">2</text>
      </g>

      <g id="legend-icon-3" class="icon icon-3" transform="translate(26.3, 86.2)">
        <rect width="18" height="18"/>
        <text transform="translate(9, 14)">3</text>
      </g>

      <g id="legend-icon-4" class="icon icon-4" transform="translate(26.3, 107)">
        <rect width="18" height="18"/>
        <text transform="translate(9, 14)">4</text>
      </g>
    </g>
  </g>
</svg>
